<svg width="122" height="26" viewBox="0 0 122 26" fill="none" xmlns="http://www.w3.org/2000/svg">
<g id="Star">
<path id="Star 3" d="M9.19467 3.42789C9.46221 2.60449 10.6271 2.60449 10.8946 3.42789L12.6532 8.84008C12.7728 9.20832 13.116 9.45763 13.5032 9.45763H19.1939C20.0597 9.45763 20.4196 10.5655 19.7192 11.0744L15.1153 14.4193C14.8021 14.6469 14.671 15.0503 14.7906 15.4185L16.5492 20.8307C16.8167 21.6541 15.8743 22.3388 15.1739 21.83L10.57 18.485C10.2567 18.2575 9.83258 18.2575 9.51934 18.485L4.91545 21.83C4.21502 22.3388 3.27261 21.6541 3.54015 20.8307L5.29867 15.4185C5.41832 15.0503 5.28725 14.6469 4.97401 14.4193L0.370122 11.0744C-0.330307 10.5655 0.0296666 9.45763 0.895444 9.45763H6.58616C6.97334 9.45763 7.3165 9.20832 7.43614 8.84008L9.19467 3.42789Z" fill="#FFA722"/>
<path id="Star 5" d="M58.7934 3.53393C59.0551 2.69857 60.2373 2.69857 60.4991 3.53393L62.1587 8.83113C62.2755 9.20392 62.6209 9.45765 63.0116 9.45765H68.4497C69.3076 9.45765 69.6727 10.5489 68.9875 11.0652L64.5327 14.4216C64.2308 14.6491 64.1047 15.0419 64.2177 15.4026L65.906 20.791C66.1657 21.6202 65.2093 22.2949 64.5153 21.772L60.184 18.5086C59.8656 18.2687 59.4268 18.2687 59.1084 18.5086L54.7771 21.772C54.0831 22.2949 53.1267 21.6202 53.3864 20.791L55.0747 15.4026C55.1877 15.0419 55.0616 14.6491 54.7597 14.4216L50.3049 11.0652C49.6197 10.5489 49.9848 9.45765 50.8427 9.45765H56.2808C56.6715 9.45765 57.0169 9.20392 57.1337 8.83113L58.7934 3.53393Z" fill="#FFA722"/>
<path id="Star 7" d="M107.591 9.1491L109.249 4.04797L110.906 9.1491C111.16 9.92936 111.887 10.4576 112.707 10.4576H118.071L113.732 13.6103C113.068 14.0925 112.79 14.9473 113.044 15.7276L114.701 20.8287L110.362 17.676C109.698 17.1938 108.799 17.1938 108.136 17.676L103.796 20.8287L105.454 15.7276C105.707 14.9473 105.43 14.0925 104.766 13.6103L100.427 10.4576H105.79C106.611 10.4576 107.338 9.92936 107.591 9.1491Z" stroke="#FFA722" stroke-width="2"/>
<path id="Star 4" d="M34.2191 3.42789C34.4866 2.60449 35.6515 2.60449 35.9191 3.42789L37.6776 8.84008C37.7972 9.20832 38.1404 9.45763 38.5276 9.45763H44.2183C45.0841 9.45763 45.444 10.5655 44.7436 11.0744L40.1397 14.4193C39.8265 14.6469 39.6954 15.0503 39.8151 15.4185L41.5736 20.8307C41.8411 21.6541 40.8987 22.3388 40.1983 21.83L35.5944 18.485C35.2812 18.2575 34.857 18.2575 34.5438 18.485L29.9399 21.83C29.2394 22.3388 28.297 21.6541 28.5646 20.8307L30.3231 15.4185C30.4427 15.0503 30.3117 14.6469 29.9984 14.4193L25.3945 11.0744C24.6941 10.5655 25.0541 9.45763 25.9199 9.45763H31.6106C31.9978 9.45763 32.3409 9.20832 32.4606 8.84008L34.2191 3.42789Z" fill="#FFA722"/>
<path id="Star 6" d="M83.3744 3.42789C83.6419 2.60449 84.8068 2.60449 85.0743 3.42789L86.8329 8.84008C86.9525 9.20832 87.2957 9.45763 87.6828 9.45763H93.3736C94.2393 9.45763 94.5993 10.5655 93.8989 11.0744L89.295 14.4193C88.9818 14.6469 88.8507 15.0503 88.9703 15.4185L90.7289 20.8307C90.9964 21.6541 90.054 22.3388 89.3535 21.83L84.7497 18.485C84.4364 18.2575 84.0123 18.2575 83.699 18.485L79.0951 21.83C78.3947 22.3388 77.4523 21.6541 77.7198 20.8307L79.4784 15.4185C79.598 15.0503 79.4669 14.6469 79.1537 14.4193L74.5498 11.0744C73.8494 10.5655 74.2094 9.45763 75.0751 9.45763H80.7658C81.153 9.45763 81.4962 9.20832 81.6158 8.84008L83.3744 3.42789Z" fill="#FFA722"/>
<g id="Mask Group">
<mask id="mask0_1_3683" style="mask-type:alpha" maskUnits="userSpaceOnUse" x="99" y="2" width="21" height="20">
<path id="Star 8" d="M108.289 3.40599C108.588 2.48468 109.892 2.48468 110.191 3.40599L111.826 8.4398C111.96 8.85182 112.344 9.13078 112.778 9.13078H118.07C119.039 9.13078 119.442 10.3704 118.658 10.9398L114.376 14.0509C114.026 14.3055 113.879 14.7569 114.013 15.1689L115.648 20.2027C115.948 21.124 114.893 21.8901 114.11 21.3207L109.828 18.2097C109.477 17.955 109.003 17.955 108.652 18.2097L104.37 21.3207C103.586 21.8901 102.532 21.124 102.831 20.2027L104.467 15.1689C104.601 14.7569 104.454 14.3055 104.103 14.0509L99.8215 10.9398C99.0378 10.3704 99.4405 9.13078 100.409 9.13078H105.702C106.135 9.13078 106.519 8.85182 106.653 8.4398L108.289 3.40599Z" fill="#FFA722"/>
</mask>
<g mask="url(#mask0_1_3683)">
<rect id="Rectangle 40" x="99.1738" y="0.970095" width="9.82044" height="22.587" rx="1" fill="#FFA722"/>
</g>
</g>
</g>
</svg>
